<svg width="50" height="15" viewBox="0 0 50 15" fill="none" xmlns="http://www.w3.org/2000/svg">
<path fill-rule="evenodd" clip-rule="evenodd" d="M3.12877 0.0372996C2.37161 0.124822 1.65311 0.395981 1.17372 0.775138C0.724541 1.13041 0.322242 1.82637 0.269312 2.33986C0.236796 2.65514 0.281417 2.67831 1.09344 2.7672C1.95342 2.86139 2.08421 2.86211 2.16203 2.77298C2.1958 2.73436 2.2568 2.59432 2.29758 2.46183C2.39658 2.14025 2.68584 1.84324 3.00177 1.73881C3.28255 1.64599 3.72717 1.64635 3.9595 1.73957C4.18244 1.82902 4.43079 2.1105 4.48868 2.33942C4.51349 2.43734 4.53374 2.70517 4.53374 2.93458V3.35163L3.87817 3.42225C2.11778 3.61179 1.40589 3.85918 0.760204 4.50584C0.39361 4.87304 0.225825 5.15632 0.0914833 5.63492C-0.0216377 6.03809 -0.0313618 6.74152 0.0707456 7.13907C0.381788 8.35049 1.40952 8.96258 2.83906 8.78778C3.53332 8.70291 3.95684 8.50678 4.54371 7.99831L4.87581 7.71057L5.05037 7.96956C5.14639 8.11197 5.34524 8.34475 5.4922 8.48675C5.88708 8.86832 5.91685 8.86314 6.57516 8.2993C7.36165 7.62566 7.39808 7.5886 7.39808 7.46262C7.39808 7.39842 7.34107 7.27673 7.26329 7.17496C7.07622 6.93018 6.94196 6.709 6.85155 6.4967C6.78043 6.32972 6.7726 6.15781 6.74828 4.22834C6.71931 1.92975 6.70918 1.82685 6.46325 1.32974C5.99923 0.391726 4.63553 -0.136822 3.12877 0.0372996ZM23.394 0.0392673C22.171 0.175851 21.2095 0.754624 20.7981 1.60175C20.6154 1.97789 20.5051 2.38065 20.5511 2.50415C20.5676 2.54863 20.6108 2.60962 20.6472 2.63961C20.713 2.69401 21.8313 2.83826 22.213 2.84159C22.4348 2.84352 22.4876 2.78787 22.5903 2.44365C22.7273 1.98451 23.1885 1.67349 23.7369 1.67028C24.0973 1.66819 24.327 1.74616 24.5281 1.93883C24.7511 2.15245 24.8261 2.40539 24.8261 2.94305V3.3495L24.0495 3.43799C22.5494 3.6089 21.9113 3.79956 21.2938 4.26158C20.8669 4.58096 20.5129 5.11224 20.3641 5.65681C20.2661 6.01597 20.2655 6.82431 20.3631 7.176C20.5742 7.93709 21.0414 8.43444 21.7872 8.69187C22.07 8.78947 22.1599 8.80087 22.6476 8.80103C23.6441 8.80135 24.1867 8.59383 24.8732 7.94997L25.143 7.69692L25.314 7.94997C25.4081 8.08913 25.6106 8.32495 25.7639 8.47398C26.1836 8.88197 26.1791 8.88305 27.0048 8.17151C27.4853 7.75746 27.6735 7.57054 27.6819 7.49903C27.6898 7.43166 27.6096 7.27432 27.4307 7.00642C27.0157 6.38505 27.0354 6.52091 27.0052 4.06775C26.9821 2.18397 26.9708 1.91458 26.9073 1.7191C26.782 1.33319 26.6017 1.04674 26.3145 0.777147C25.8677 0.357682 25.2929 0.129238 24.4484 0.0355329C24.0136 -0.0127249 23.8546 -0.0121622 23.394 0.0392673ZM12.1585 0.118639C11.5699 0.214673 11.0301 0.626633 10.7163 1.2193L10.5473 1.53843L10.5461 0.990854C10.5442 0.204357 10.6113 0.253698 9.54403 0.253698C8.7682 0.253698 8.69041 0.260082 8.61259 0.33018L8.52767 0.406661V4.47545C8.52767 8.49073 8.52872 8.54529 8.60836 8.62454C8.68412 8.69994 8.74282 8.70483 9.5721 8.70483C10.3813 8.70483 10.4632 8.69841 10.5504 8.62811L10.6457 8.55139L10.6678 5.78765C10.6846 3.68044 10.7023 2.98576 10.7423 2.86331C10.8364 2.57497 10.9964 2.32682 11.1621 2.21259C11.2991 2.11813 11.3741 2.09825 11.6394 2.08629C12.131 2.06405 12.3535 2.20075 12.5444 2.6425C12.6185 2.81397 12.6235 2.96878 12.6426 5.68728L12.6628 8.55139L12.7581 8.62811C12.8453 8.69837 12.927 8.70483 13.7287 8.70483C14.5417 8.70483 14.6103 8.69921 14.6889 8.62634C14.7728 8.54846 14.7737 8.52662 14.7917 5.86618C14.8113 2.96902 14.8144 2.92614 15.0328 2.5563C15.2598 2.17177 15.7381 1.99423 16.2016 2.12234C16.4077 2.17927 16.5923 2.34404 16.6931 2.56088C16.776 2.73901 16.7782 2.80409 16.7979 5.64713L16.8181 8.55139L16.9134 8.62811C17.0004 8.69825 17.082 8.70483 17.866 8.70483C18.6724 8.70483 18.7298 8.6999 18.8298 8.62161L18.9361 8.53842L18.9354 5.27929C18.9346 1.71075 18.935 1.71709 18.6959 1.20866C18.3661 0.507352 17.4525 0.0215218 16.5919 0.0897732C15.7285 0.158225 15.0918 0.573836 14.7192 1.31212L14.6106 1.52747L14.5372 1.36435C14.4189 1.1013 14.1542 0.738925 13.9457 0.554405C13.4998 0.159711 12.8611 0.0039769 12.1585 0.118639ZM38.4216 0.117154C37.1527 0.309383 36.2053 1.17453 35.7442 2.5622C35.5364 3.18751 35.4647 3.67229 35.4652 4.44915C35.4657 5.17302 35.5274 5.64412 35.6986 6.2322C36.0059 7.28749 36.6405 8.11057 37.4614 8.51859C37.9451 8.75896 38.2142 8.82704 38.7871 8.85394C39.2927 8.87767 39.736 8.81376 40.1256 8.66091C41.31 8.19632 42.1655 7.00762 42.42 5.47293C42.498 5.00219 42.4868 3.91663 42.3987 3.42538C42.1322 1.93718 41.4037 0.85455 40.344 0.371772C39.8355 0.140078 39.0004 0.0294713 38.4216 0.117154ZM47.4382 0.0984061C46.6641 0.217485 46.1385 0.641887 45.7614 1.45243L45.6467 1.69902L45.6448 1.05284C45.6424 0.198776 45.7092 0.257671 44.724 0.24109C43.9079 0.2274 43.8245 0.236716 43.7055 0.355072C43.6273 0.432959 43.6259 0.505224 43.6259 4.47104V8.50775L43.7249 8.60627C43.8238 8.70479 43.8243 8.70483 44.6886 8.70483C45.4798 8.70483 45.5615 8.69829 45.6486 8.62811L45.7438 8.55143L45.7659 5.96831C45.7871 3.48669 45.7913 3.37315 45.8744 3.07734C45.991 2.66157 46.0901 2.48098 46.3046 2.29313C46.5715 2.05931 46.8565 1.99142 47.1872 2.08284C47.5231 2.1757 47.7443 2.50672 47.8204 3.03065C47.8433 3.18855 47.8606 4.41539 47.861 5.92166L47.8618 8.53842L47.9681 8.62161C48.0681 8.69986 48.1255 8.70483 48.9309 8.70483C49.7363 8.70483 49.7937 8.69986 49.8937 8.62161L50 8.53842V5.60895C50 3.84433 49.9832 2.52446 49.9578 2.28964C49.9107 1.85504 49.7957 1.38784 49.6807 1.16413C49.4535 0.722184 48.9955 0.340256 48.5161 0.192873C48.255 0.112617 47.6758 0.0618715 47.4382 0.0984061ZM28.9814 0.313919C28.907 0.388032 28.9008 0.447731 28.9008 1.09058C28.9008 1.74736 28.9056 1.79128 28.9856 1.86343C29.0645 1.93457 29.1658 1.94132 30.4382 1.95998L31.806 1.98006L30.2758 4.16125C29.4342 5.36095 28.7157 6.4168 28.6792 6.50762C28.5913 6.72626 28.5447 7.99887 28.6153 8.25494C28.6918 8.53268 28.7817 8.54689 29.2312 8.3525C29.8923 8.0666 30.3725 7.93825 31.0793 7.85844C32.0371 7.75032 33.2481 7.95222 34.1115 8.36402C34.2731 8.44106 34.426 8.5041 34.4514 8.5041C34.4768 8.5041 34.5453 8.46664 34.6038 8.42087L34.7101 8.33768V7.58085V6.82403L34.6039 6.6984C34.2998 6.3388 33.168 5.99638 32.1026 5.94173L31.5727 5.91455L32.9901 3.89989C33.7697 2.79181 34.4438 1.82525 34.4882 1.75198C34.5596 1.63414 34.5689 1.54755 34.5689 1.00298C34.5689 0.404293 34.5662 0.385103 34.4737 0.310428C34.382 0.236515 34.278 0.233624 31.7203 0.233624C29.1159 0.233624 29.0605 0.235229 28.9814 0.313919ZM39.3293 1.76346C39.583 1.83255 39.8498 2.13346 39.9535 2.46754C40.1264 3.02447 40.1706 3.44417 40.1707 4.52945C40.1708 5.42459 40.16 5.60341 40.0845 5.9527C39.8939 6.83462 39.5394 7.21936 38.9175 7.21936C38.4 7.21936 38.0515 6.79841 37.8733 5.95791C37.6715 5.00653 37.7273 3.1376 37.9772 2.47275C38.2077 1.85981 38.7118 1.59536 39.3293 1.76346ZM4.53374 5.14436C4.53374 5.4384 4.51389 5.78576 4.48969 5.91624C4.39133 6.44567 4.06766 6.9242 3.66799 7.13108C3.50964 7.21302 3.40669 7.2363 3.20243 7.23638C2.57676 7.23659 2.23727 6.78789 2.28294 6.02107C2.30517 5.64705 2.41668 5.37685 2.64421 5.14552C2.94912 4.83554 3.59763 4.62211 4.26143 4.61336L4.53374 4.60975V5.14436ZM24.8255 5.14171C24.8244 5.9694 24.6924 6.4323 24.3459 6.82411C23.8308 7.40637 22.9982 7.37626 22.6796 6.7638C22.5728 6.55853 22.533 5.99168 22.6051 5.70426C22.775 5.02785 23.4789 4.63428 24.5538 4.61468L24.8261 4.60975L24.8255 5.14171ZM30.7 9.12948C30.0183 9.23499 29.4186 9.43994 28.9333 9.73334C28.6687 9.89329 28.5589 10.027 28.5962 10.1439C28.6325 10.2578 28.7264 10.2678 29.211 10.2089C30.6691 10.032 31.6792 10.0556 32.1154 10.2768C32.3081 10.3745 32.3506 10.7829 32.2291 11.3684C32.1533 11.7335 31.8338 12.702 31.6056 13.2582C31.3759 13.8184 31.3924 13.9739 31.6744 13.906C31.8277 13.8691 32.3101 13.364 32.5857 12.9518C32.9926 12.3432 33.3349 11.495 33.4839 10.7261C33.5681 10.2916 33.5797 9.60732 33.5051 9.47387C33.4306 9.34054 33.0956 9.20058 32.6776 9.12819C32.2326 9.05115 31.202 9.05183 30.7 9.12948ZM7.0834 9.63627C6.99977 9.71949 7.02858 9.89185 7.14593 10.0104C7.32461 10.191 8.1942 10.9051 8.58819 11.1948C11.6589 13.4529 15.2185 14.7306 19.0975 14.9671C23.0654 15.209 27.461 14.103 30.4741 12.1046C31.0669 11.7115 31.1202 11.6696 31.184 11.5473C31.2656 11.3909 31.2543 11.2967 31.1374 11.1583C30.9558 10.9436 30.8552 10.9534 30.0467 11.2653C27.0325 12.4278 24.1849 13.0011 21.0944 13.0675C16.468 13.167 11.8999 12.0599 7.87949 9.86491C7.37621 9.59014 7.18495 9.53521 7.0834 9.63627Z" fill="white"/>
</svg>
