<svg width="21" height="20" viewBox="0 0 21 20" fill="none" xmlns="http://www.w3.org/2000/svg">
<path d="M2.0551 12.257C1.3371 8.904 0.977103 7.227 1.8781 6.114C2.7781 5 4.4931 5 7.9221 5H13.0781C16.5081 5 18.2211 5 19.1221 6.114C20.0221 7.228 19.6631 8.904 18.9451 12.257L18.5161 14.257C18.0291 16.53 17.7861 17.666 16.9611 18.333C16.1361 19 14.9741 19 12.6501 19H8.3501C6.0261 19 4.8641 19 4.0401 18.333C3.2141 17.666 2.9701 16.53 2.4841 14.257L2.0551 12.257Z" stroke="white" stroke-width="1.5"/>
<path d="M1.5 9H19.5M8.5 12H12.5M16.5 7L13.5 1M4.5 7L7.5 1" stroke="white" stroke-width="1.5" stroke-linecap="round" stroke-linejoin="round"/>
</svg>
