<svg width="30" height="30" viewBox="0 0 30 30" fill="none" xmlns="http://www.w3.org/2000/svg">
<path d="M15 18.75L18.75 15M18.75 15L15 11.25M18.75 15H5M5 9.06V9C5 7.6 5 6.9 5.2725 6.365C5.5125 5.89375 5.89375 5.5125 6.365 5.2725C6.9 5 7.6 5 9 5H21C22.4 5 23.1 5 23.6337 5.2725C24.105 5.5125 24.4875 5.89375 24.7275 6.365C25 6.89875 25 7.59875 25 8.99625V21.005C25 22.4025 25 23.1013 24.7275 23.635C24.4874 24.1055 24.1045 24.4879 23.6337 24.7275C23.1 25 22.4012 25 21.0037 25H8.99625C7.59875 25 6.89875 25 6.365 24.7275C5.89462 24.4878 5.51218 24.1054 5.2725 23.635C5 23.1 5 22.4 5 21V20.9375" stroke="#0165FF" stroke-width="2.5" stroke-linecap="round" stroke-linejoin="round"/>
</svg>
