<svg width="14" height="14" viewBox="0 0 14 14" fill="none" xmlns="http://www.w3.org/2000/svg">
<path d="M7.47409 1.91065L8.43216 3.82679C8.56281 4.09353 8.9112 4.34937 9.20515 4.39837L10.9417 4.68688C12.0521 4.87196 12.3134 5.67761 11.5132 6.47237L10.1632 7.82238C9.93459 8.05101 9.80939 8.49194 9.88015 8.80766L10.2666 10.4788C10.5715 11.8016 9.86927 12.3133 8.6989 11.622L7.07127 10.6585C6.77731 10.4843 6.29284 10.4843 5.99344 10.6585L4.36581 11.622C3.20088 12.3133 2.49322 11.7962 2.79806 10.4788L3.18455 8.80766C3.25532 8.49194 3.13012 8.05101 2.90149 7.82238L1.55148 6.47237C0.756716 5.67761 1.01256 4.87196 2.12305 4.68688L3.85956 4.39837C4.14807 4.34937 4.49645 4.09353 4.6271 3.82679L5.58517 1.91065C6.10775 0.870929 6.95695 0.870929 7.47409 1.91065Z" fill="url(#paint0_linear_554_62)" stroke="#FFC700" stroke-width="1.5" stroke-linecap="round" stroke-linejoin="round"/>
<defs>
<linearGradient id="paint0_linear_554_62" x1="1" y1="6" x2="12" y2="6" gradientUnits="userSpaceOnUse">
<stop offset="0.53125" stop-color="#FFC700"/>
<stop offset="0.557292" stop-color="#FFC700" stop-opacity="0"/>
</linearGradient>
</defs>
</svg>
