<svg width="24" height="24" viewBox="0 0 24 24" fill="none" xmlns="http://www.w3.org/2000/svg">
<path fill-rule="evenodd" clip-rule="evenodd" d="M9.7911 1.2534C9.91165 0.53012 10.5374 0 11.2707 0H12.7293C13.4626 0 14.0884 0.530119 14.2089 1.2534L14.2724 1.6346C14.3382 2.02925 14.6344 2.34228 15.0159 2.46281C15.5698 2.63782 16.1029 2.85975 16.6105 3.12394C16.9655 3.30869 17.3963 3.29678 17.7219 3.0642L18.0371 2.83909C18.6337 2.41289 19.4511 2.48054 19.9696 2.99903L21.001 4.03043C21.5195 4.54892 21.5871 5.36627 21.1609 5.96295L20.9358 6.2781C20.7032 6.60371 20.6913 7.03455 20.8761 7.38949C21.1403 7.89707 21.3622 8.43016 21.5372 8.98409C21.6577 9.3656 21.9707 9.66179 22.3654 9.72757L22.7466 9.7911C23.4699 9.91165 24 10.5374 24 11.2707V12.7293C24 13.4626 23.4699 14.0884 22.7466 14.2089L22.3654 14.2724C21.9707 14.3382 21.6577 14.6344 21.5372 15.0159C21.3622 15.5698 21.1403 16.1029 20.8761 16.6105C20.6913 16.9654 20.7032 17.3963 20.9358 17.7219L21.1609 18.0371C21.5871 18.6337 21.5195 19.4511 21.001 19.9696L19.9696 21.001C19.4511 21.5195 18.6338 21.5871 18.0371 21.1609L17.7219 20.9358C17.3963 20.7032 16.9655 20.6913 16.6105 20.8761C16.1029 21.1403 15.5698 21.3622 15.0159 21.5372C14.6344 21.6577 14.3382 21.9707 14.2724 22.3654L14.2089 22.7466C14.0884 23.4699 13.4626 24 12.7293 24H11.2707C10.5374 24 9.91165 23.4699 9.7911 22.7466L9.72757 22.3654C9.66179 21.9707 9.36561 21.6577 8.98409 21.5372C8.43016 21.3622 7.89707 21.1403 7.38949 20.8761C7.03455 20.6913 6.60372 20.7032 6.27811 20.9358L5.96293 21.1609C5.36625 21.5871 4.5489 21.5195 4.03041 21.001L2.99901 19.9696C2.48052 19.4511 2.41287 18.6338 2.83907 18.0371L3.0642 17.7219C3.29678 17.3963 3.30869 16.9655 3.12394 16.6105C2.85975 16.1029 2.63782 15.5698 2.46281 15.0159C2.34228 14.6344 2.02925 14.3382 1.6346 14.2724L1.2534 14.2089C0.53012 14.0884 0 13.4626 0 12.7293V11.2707C0 10.5374 0.530119 9.91165 1.2534 9.7911L1.6346 9.72757C2.02925 9.66179 2.34228 9.3656 2.46281 8.98409C2.63782 8.43015 2.85975 7.89706 3.12394 7.38948C3.30869 7.03454 3.29678 6.60371 3.0642 6.2781L2.83909 5.96294C2.41289 5.36626 2.48054 4.54892 2.99903 4.03042L4.03043 2.99903C4.54892 2.48053 5.36627 2.41289 5.96295 2.83909L6.2781 3.0642C6.60371 3.29678 7.03455 3.30868 7.38949 3.12394C7.89707 2.85975 8.43016 2.63782 8.98409 2.46281C9.36561 2.34228 9.66179 2.02926 9.72757 1.6346L9.7911 1.2534ZM18.9291 13C18.4439 16.3923 15.5265 19 12 19C11.1568 19 10.3484 18.8509 9.5997 18.5776L11.6753 14.9826C11.7819 14.9941 11.8903 15 12 15C13.3062 15 14.4175 14.1652 14.8293 13H18.9291ZM18.9291 11H14.8293C14.4175 9.83481 13.3062 9 12 9C11.8903 9 11.782 9.00589 11.6754 9.01736L9.5998 5.42233C10.3484 5.14908 11.1568 5 12 5C15.5265 5 18.4439 7.60771 18.9291 11ZM7.83814 6.37104C6.11624 7.64626 5 9.69278 5 12C5 14.3072 6.1162 16.3537 7.83806 17.6289L9.86885 14.1115C9.33174 13.5694 9 12.8234 9 12C9 11.1765 9.33177 10.4306 9.86893 9.88848L7.83814 6.37104Z" fill="white"/>
</svg>
