<svg width="25" height="26" viewBox="0 0 25 26" fill="none" xmlns="http://www.w3.org/2000/svg">
<path d="M22.9167 0.5H2.08333C1.5308 0.5 1.00089 0.719493 0.610194 1.11019C0.219493 1.50089 0 2.0308 0 2.58333V23.4167C0 23.9692 0.219493 24.4991 0.610194 24.8898C1.00089 25.2805 1.5308 25.5 2.08333 25.5H22.9167C23.4692 25.5 23.9991 25.2805 24.3898 24.8898C24.7805 24.4991 25 23.9692 25 23.4167V2.58333C25 2.0308 24.7805 1.50089 24.3898 1.11019C23.9991 0.719493 23.4692 0.5 22.9167 0.5ZM19.7917 14.0417H13.5417V20.2917C13.5417 20.5679 13.4319 20.8329 13.2366 21.0282C13.0412 21.2236 12.7763 21.3333 12.5 21.3333C12.2237 21.3333 11.9588 21.2236 11.7634 21.0282C11.5681 20.8329 11.4583 20.5679 11.4583 20.2917V14.0417H5.20833C4.93207 14.0417 4.66711 13.9319 4.47176 13.7366C4.27641 13.5412 4.16667 13.2763 4.16667 13C4.16667 12.7237 4.27641 12.4588 4.47176 12.2634C4.66711 12.0681 4.93207 11.9583 5.20833 11.9583H11.4583V5.70833C11.4583 5.43207 11.5681 5.16711 11.7634 4.97176C11.9588 4.77641 12.2237 4.66667 12.5 4.66667C12.7763 4.66667 13.0412 4.77641 13.2366 4.97176C13.4319 5.16711 13.5417 5.43207 13.5417 5.70833V11.9583H19.7917C20.0679 11.9583 20.3329 12.0681 20.5282 12.2634C20.7236 12.4588 20.8333 12.7237 20.8333 13C20.8333 13.2763 20.7236 13.5412 20.5282 13.7366C20.3329 13.9319 20.0679 14.0417 19.7917 14.0417Z" fill="white"/>
</svg>
