<svg width="19" height="19" viewBox="0 0 19 19" fill="none" xmlns="http://www.w3.org/2000/svg">
<g clip-path="url(#clip0_295_532)">
<path d="M10.8696 2.77884L12.263 5.56551C12.453 5.95342 12.9596 6.3255 13.3871 6.39675L15.9125 6.81634C17.5276 7.0855 17.9075 8.25717 16.7438 9.413L14.7805 11.3763C14.448 11.7088 14.2659 12.3501 14.3688 12.8093L14.9309 15.2397C15.3742 17.1634 14.353 17.9076 12.6509 16.9022L10.2838 15.5009C9.8563 15.2476 9.15172 15.2476 8.7163 15.5009L6.34922 16.9022C4.65505 17.9076 3.62588 17.1555 4.06922 15.2397L4.6313 12.8093C4.73422 12.3501 4.55213 11.7088 4.21963 11.3763L2.2563 9.413C1.10047 8.25717 1.47255 7.0855 3.08755 6.81634L5.61297 6.39675C6.03255 6.3255 6.53922 5.95342 6.72922 5.56551L8.12255 2.77884C8.88255 1.26675 10.1175 1.26675 10.8696 2.77884Z" fill="#FFC700" stroke="#FFC700" stroke-width="1.5" stroke-linecap="round" stroke-linejoin="round"/>
</g>
<defs>
<clipPath id="clip0_295_532">
<rect width="19" height="19" fill="white"/>
</clipPath>
</defs>
</svg>
