<svg width="22" height="26" viewBox="0 0 22 26" fill="none" xmlns="http://www.w3.org/2000/svg">
<path fill-rule="evenodd" clip-rule="evenodd" d="M3.75 23V24C3.75 25.1046 4.64543 26 5.75 26H19.25C20.3546 26 21.25 25.1046 21.25 24V6C21.25 4.89543 20.3546 4 19.25 4H18.75V21C18.75 22.1046 17.8546 23 16.75 23H3.75Z" fill="white"/>
<path fill-rule="evenodd" clip-rule="evenodd" d="M2.75 0C1.64543 0 0.75 0.89543 0.75 2V20C0.75 21.1046 1.64543 22 2.75 22H15.75C16.8546 22 17.75 21.1046 17.75 20V2C17.75 0.895431 16.8546 0 15.75 0H2.75ZM14.6141 9.26478C14.6077 9.20575 14.5939 9.07931 14.5762 8.96456C14.3212 7.57956 13.2812 6.59456 11.9812 6.50956C11.1062 6.44956 10.2462 6.76956 9.47625 7.43456L9.43625 7.46456L9.39625 7.43456C8.60625 6.75456 7.75625 6.43956 6.85125 6.50956C6.56625 6.52956 6.21125 6.62456 5.94125 6.74456C5.07625 7.14456 4.49625 7.93956 4.30625 8.97956C4.23125 9.33956 4.23125 9.90956 4.30625 10.2696C4.42625 10.9196 4.72625 11.5846 5.19125 12.2546C5.98625 13.3946 7.31625 14.6046 8.92625 15.6596L8.93583 15.6657C9.21727 15.8452 9.26325 15.8746 9.44125 15.8746C9.62125 15.8746 9.67125 15.8446 9.92625 15.6796C11.4562 14.6846 12.7012 13.5746 13.5362 12.4696C13.9262 11.9596 14.3062 11.2496 14.4612 10.7496C14.5362 10.4996 14.6062 10.0996 14.6162 9.96956C14.6362 9.74956 14.6362 9.54956 14.6162 9.28456C14.6157 9.27928 14.6149 9.27263 14.6141 9.26478Z" fill="white"/>
</svg>
