<svg width="30" height="30" viewBox="0 0 30 30" fill="none" xmlns="http://www.w3.org/2000/svg">
<path d="M24.4324 22.4425C24.6966 22.7067 24.845 23.065 24.845 23.4386C24.845 23.8122 24.6966 24.1705 24.4324 24.4347C24.1682 24.6988 23.8099 24.8473 23.4363 24.8473C23.0627 24.8473 22.7044 24.6988 22.4402 24.4347L14.9999 16.9921L7.55737 24.4323C7.29319 24.6965 6.93488 24.8449 6.56128 24.8449C6.18767 24.8449 5.82936 24.6965 5.56518 24.4323C5.301 24.1681 5.15259 23.8098 5.15259 23.4362C5.15259 23.0626 5.301 22.7043 5.56518 22.4401L13.0078 14.9999L5.56753 7.55732C5.30335 7.29314 5.15493 6.93484 5.15493 6.56123C5.15493 6.18762 5.30335 5.82932 5.56753 5.56513C5.83171 5.30095 6.19001 5.15254 6.56362 5.15254C6.93723 5.15254 7.29553 5.30095 7.55971 5.56513L14.9999 13.0077L22.4425 5.56396C22.7067 5.29978 23.065 5.15137 23.4386 5.15137C23.8122 5.15137 24.1705 5.29978 24.4347 5.56396C24.6989 5.82814 24.8473 6.18645 24.8473 6.56006C24.8473 6.93366 24.6989 7.29197 24.4347 7.55615L16.9921 14.9999L24.4324 22.4425Z" fill="#0165FF"/>
</svg>
